<?xml version="1.0" standalone="no"?>
<!DOCTYPE svg PUBLIC "-//W3C//DTD SVG 20010904//EN"
 "http://www.w3.org/TR/2001/REC-SVG-20010904/DTD/svg10.dtd">
<svg version="1.0" xmlns="http://www.w3.org/2000/svg"
 width="322.000000pt" height="181.000000pt" viewBox="0 0 322.000000 181.000000"
 preserveAspectRatio="xMidYMid meet">
<metadata>
Created by potrace 1.16, written by Peter Selinger 2001-2019
</metadata>
<g transform="translate(0.000000,181.000000) scale(0.100000,-0.100000)"
fill="#000000" stroke="none">
<path d="M1981 1304 c-92 -11 -116 -12 -123 -2 -6 10 -8 10 -8 -1 0 -9 -10
-12 -32 -9 -31 3 -33 1 -34 -29 0 -24 5 -34 23 -42 24 -11 24 -14 18 -94 -13
-188 -14 -189 -43 -185 -25 3 -27 7 -33 63 -4 33 -7 92 -8 131 -1 64 -3 73
-31 99 -34 32 -41 17 -10 -22 16 -20 20 -41 20 -94 0 -39 -4 -69 -10 -69 -5 0
-10 -24 -10 -53 l0 -53 -212 -14 c-117 -7 -229 -14 -248 -14 -19 -1 -38 -4
-41 -8 -3 -5 -32 -13 -65 -19 -32 -7 -63 -16 -69 -21 -14 -12 12 -27 36 -21
14 4 19 0 19 -15 0 -14 -9 -21 -30 -25 -28 -6 -30 -9 -30 -56 l0 -50 -37 -3
c-36 -3 -38 -5 -34 -33 1 -16 5 -33 8 -38 2 -4 40 -7 83 -7 l80 0 -3 -62 -2
-63 33 -3 32 -3 0 -60 0 -60 83 3 82 3 14 78 c7 42 16 77 20 77 11 0 31 -71
31 -107 0 -47 -29 -118 -60 -148 -22 -21 -39 -28 -69 -28 -68 0 -111 42 -126
126 -4 22 -13 37 -21 37 -9 0 -14 12 -14 35 0 19 -4 35 -10 35 -5 0 -10 -16
-10 -35 0 -34 -1 -35 -40 -35 -38 0 -40 2 -40 30 0 17 -4 30 -10 30 -5 0 -10
-13 -10 -30 0 -23 -4 -30 -20 -30 -18 0 -20 7 -20 65 0 62 -1 65 -25 65 -20 0
-25 -6 -31 -35 -3 -19 -11 -32 -16 -29 -7 4 -7 0 0 -12 5 -11 12 -49 15 -86
l6 -68 -27 -1 c-26 -2 -26 -2 -3 -6 29 -6 43 -19 66 -62 23 -45 102 -121 145
-139 52 -22 165 -20 220 5 47 20 104 70 131 113 l16 24 27 -54 c30 -60 80
-110 140 -142 46 -24 142 -27 202 -8 49 16 120 64 139 94 13 19 25 23 73 25
94 2 145 25 202 89 27 30 51 54 53 51 1 -2 9 -17 17 -34 27 -54 113 -132 161
-145 56 -15 135 -7 186 18 194 99 258 484 106 637 -102 103 -105 105 -176 105
-78 0 -71 -14 -86 167 -14 160 -14 173 4 173 23 0 18 28 -7 44 -30 18 -294 57
-378 55 -36 -1 -116 -8 -179 -15z m26 -124 c50 -7 95 -15 101 -19 5 -3 7 -38
4 -83 -4 -75 -5 -77 -33 -83 -18 -4 -29 -13 -29 -23 0 -9 -7 -25 -15 -35 -12
-17 -23 -18 -100 -12 l-86 7 7 82 c3 44 10 85 15 91 5 5 9 25 9 45 0 39 7 53
25 47 6 -3 51 -10 102 -17z m472 -112 c7 -62 14 -126 18 -142 5 -28 4 -29 -27
-22 -18 3 -42 6 -54 6 -24 0 -56 53 -56 90 0 17 -7 20 -45 20 l-45 0 -1 -47
c-1 -27 -6 1 -11 62 -5 60 -6 115 -4 121 5 13 47 19 152 22 l61 2 12 -112z
m-807 -234 c119 -9 222 -14 230 -11 7 3 -12 6 -42 7 -30 1 -64 6 -75 11 -14 6
-5 8 30 4 28 -2 86 -8 130 -12 l80 -8 -55 -6 -55 -6 47 -1 c41 -2 68 -15 56
-28 -4 -4 -483 31 -565 42 -29 3 -43 10 -43 20 0 10 7 13 23 10 12 -3 119 -13
239 -22z m1063 -188 c59 -63 71 -185 26 -274 -44 -86 -109 -106 -166 -49 -80
80 -73 257 14 330 46 38 85 36 126 -7z m-823 -127 c65 -29 97 -147 64 -234
-24 -62 -66 -95 -121 -95 -57 0 -98 39 -115 110 -34 144 64 269 172 219z"/>
</g>
</svg>
